<!-- Generator: Adobe Illustrator 22.1.0, SVG Export Plug-In . SVG Version: 6.00 Build 0)  -->
<svg version="1.1" id="Layer_1" xmlns="http://www.w3.org/2000/svg" xmlns:xlink="http://www.w3.org/1999/xlink" x="0px" y="0px"
	 viewBox="0 0 75 75" style="enable-background:new 0 0 75 75;" xml:space="preserve">
<style type="text/css">
	.st0{fill:#000;}
	.st1{fill:#000;}
</style>
<path class="st0" d="M16.6,58.4c-0.1-0.1-0.1-0.3-0.2-0.4c-0.3-0.5-0.8-0.8-1.2-1.1l0-3.3l1.8,0l0-28.7l-2.9-2.6L11,24.9l0,28.7
	l1.8,0l0,3.3c-0.2,0.1-0.3,0.2-0.5,0.3c-1.4,0.9-1.8,2.8-0.9,4.1c0.9,1.4,2.8,1.8,4.1,0.9c0.1-0.1,0.2-0.2,0.3-0.3L16,62L16.6,58.4z
	"/>
<path class="st0" d="M35.6,61.8l-15-3.7l-0.4,1.8l-3-0.8c-0.1-0.6-0.3-1.1-0.7-1.6c-0.3-0.3-0.7-0.6-1.1-0.8l-2.7,0l0,0.2
	c-0.2,0.1-0.3,0.2-0.4,0.3c-1.2,1.1-1.3,3-0.2,4.2c1.1,1.2,3,1.3,4.2,0.2c0.1-0.1,0.2-0.2,0.3-0.3l3.1,0.8L19.2,64l15,3.7l3.2-2.2
	L35.6,61.8z"/>
<path class="st1" d="M54.9,37.5l2.1-1c3,6,5,12.6,5.4,19.7l-2.9,0l0,3.5h7.3C66.7,29,41.9,4.2,11.2,4.2v1.3v2.9v2.7h3.6V8.6
	c7.9,0.5,15.3,2.9,21.8,6.6l-1.2,2l3.1,1.8l1.1-2c6.3,4.2,11.6,9.8,15.5,16.3l-1.9,1L54.9,37.5z"/>
<path class="st1" d="M33.1,23.2l-9.8,11.1l1.5,1L13,55.9c-1.6,0.5-2.8,1.9-2.8,3.6c0,0.3,0,0.6,0.1,0.9l-5.9,9.1
	c-0.4,0.6-0.5,1.4-0.4,2.1s0.7,1.4,1.3,1.7l1.2,0.7c0.4,0.2,0.9,0.3,1.3,0.3c0.3,0,0.6,0,0.8-0.1c0.7-0.2,1.3-0.7,1.6-1.4l4.6-9.6
	c1.6-0.4,2.9-1.9,2.9-3.7c0-0.4-0.1-0.8-0.2-1.2L29,37.7l1.6,0.8l4.3-14.2L33.1,23.2z"/>
</svg>
